<?xml version="1.0" standalone="no"?><!DOCTYPE svg PUBLIC "-//W3C//DTD SVG 1.1//EN" "http://www.w3.org/Graphics/SVG/1.1/DTD/svg11.dtd"><svg t="1563527004980" class="icon" viewBox="0 0 1024 1024" version="1.1" xmlns="http://www.w3.org/2000/svg" p-id="1256" xmlns:xlink="http://www.w3.org/1999/xlink" width="200" height="200"><defs><style type="text/css"></style></defs><path d="M583.395 615.888H439.747c9.673 16.673 15.238 36.026 15.238 56.689 0 20.579-5.521 39.858-15.12 56.485h143.414c-9.599-16.628-15.119-35.906-15.119-56.485-0.001-20.663 5.563-40.015 15.235-56.689zM927.939 521.576c0-114.593-92.894-207.487-207.485-207.487h-37.727v113.175h37.727c52.087 0 94.312 42.226 94.312 94.312 0 34.012-18.011 63.812-45.009 80.403 15.476 19.357 24.752 43.888 24.752 70.599 0 16.531-3.574 32.218-9.944 46.374 83.21-27.01 143.374-105.161 143.374-197.376zM254.32 600.789c-25.959-16.801-43.153-45.99-43.153-79.213 0-52.087 42.224-94.312 94.31-94.312h188.625V314.089H305.478c-114.591 0-207.487 92.894-207.487 207.487 0 91 58.587 168.309 140.096 196.288a112.745 112.745 0 0 1-9.451-45.286c-0.001-27.254 9.637-52.254 25.684-71.789z" fill="#5E9DF3" p-id="1257"></path><path d="M439.747 615.888c-19.586-33.762-56.098-56.485-97.939-56.485-35.251 0-66.732 16.12-87.488 41.386-16.047 19.534-25.685 44.535-25.685 71.788 0 16.107 3.387 31.416 9.451 45.286 17.47 39.956 57.324 67.889 103.722 67.889 41.925 0 78.499-22.815 98.056-56.689 9.6-16.628 15.12-35.906 15.12-56.485 0.001-20.664-5.564-40.016-15.237-56.69z m-60.212 56.69c0 20.836-16.891 37.725-37.727 37.725-20.833 0-37.725-16.889-37.725-37.725 0-20.835 16.891-37.725 37.725-37.725 20.836 0 37.727 16.889 37.727 37.725zM769.756 601.979c-20.739-25.941-52.631-42.576-88.425-42.576-41.841 0-78.351 22.723-97.936 56.485-9.672 16.673-15.237 36.026-15.237 56.689 0 20.579 5.52 39.858 15.119 56.485 19.556 33.874 56.128 56.689 98.053 56.689 45.974 0 85.517-27.429 103.233-66.8a112.715 112.715 0 0 0 9.944-46.374c0.001-26.71-9.275-51.241-24.751-70.598z m-50.698 70.599c0 20.836-16.891 37.725-37.727 37.725-20.833 0-37.725-16.889-37.725-37.725 0-20.835 16.891-37.725 37.725-37.725 20.836 0 37.727 16.889 37.727 37.725z" fill="#5E9DF3" p-id="1258"></path><path d="M436.073 615.846c-31.251 0-56.585 25.334-56.585 56.587 0 31.251 25.334 56.587 56.585 56.587 31.253 0 56.587-25.336 56.587-56.587 0-31.253-25.334-56.587-56.587-56.587z m245.211-301.799c-31.251 0-56.585 25.334-56.585 56.587 0 31.251 25.334 56.587 56.585 56.587 31.253 0 56.587-25.336 56.587-56.587 0.001-31.253-25.333-56.587-56.587-56.587z" fill="#3080EE" p-id="1259"></path><path d="M454.985 489.407l78.074-78.138c21.56-21.579 21.56-56.563 0-78.14-21.56-21.579-56.516-21.579-78.074 0l-78.077 78.14c-21.558 21.577-21.558 56.561 0 78.138 21.561 21.577 56.515 21.577 78.077 0z" fill="#5E9DF3" p-id="1260"></path><path d="M376.382 333.136l78.315 77.9c21.626 21.513 56.687 21.513 78.313 0 21.624-21.511 21.624-56.389 0-77.9l-78.313-77.9c-21.628-21.513-56.689-21.513-78.315 0-21.624 21.511-21.624 56.388 0 77.9z" fill="#5E9DF3" p-id="1261"></path></svg>